<svg width="48" height="48" viewBox="0 0 48 48" fill="none" xmlns="http://www.w3.org/2000/svg">
<path d="M31.8897 22.2059L28.8423 26.1966L27.8803 27.4007L27.6134 27.742C27.5079 27.8723 27.3279 28.0896 27.1789 28.2509C26.8624 28.5985 26.5211 28.9274 26.1487 29.2067C25.7515 29.517 25.3046 29.9143 24.7771 29.8894L24.7833 29.8894C24.2619 30.0384 23.6972 30.1005 23.1572 29.9701C22.1393 29.7219 21.2518 29.0205 20.5257 28.1392L20.2029 27.7668L19.9299 27.4441C19.7561 27.2268 19.5885 27.0034 19.4396 26.78C19.4147 26.7428 19.3278 26.7428 19.2906 26.6931C19.0982 26.4635 18.4652 25.607 18.0121 25.1042C16.9632 23.9312 15.9454 22.7334 15.2751 21.2501C15.1696 21.0204 13.2518 18.1283 14.3255 17.2283C15.4426 16.2912 17.9314 18.5193 18.1673 18.8793C18.7383 19.7544 19.1541 20.766 20.0106 21.3866C21.2705 22.2927 22.0897 23.5713 23.12 24.6698L23.7158 25.3277C23.7779 25.3959 23.8337 25.4642 23.9082 25.5201C24.0448 25.6442 24.2744 25.638 24.3985 25.5015C24.4605 25.4394 24.504 25.3587 24.5227 25.278C24.5413 25.2284 24.5226 25.216 24.5599 25.1415L24.7771 24.7754C25.1122 24.2292 25.4536 23.6892 25.8632 23.2051C26.5645 22.3672 27.539 21.7466 28.3334 20.9832C28.5196 20.8032 28.5134 20.3998 28.712 20.195C28.8734 20.0274 29.1278 19.7295 29.3698 19.6302C29.4753 19.5868 29.5933 19.5495 29.6119 19.4378C29.7112 18.9413 32.2993 16.3532 33.5964 17.4518C34.8812 18.5193 32.7648 21.0453 31.8897 22.2059Z" fill="black"/>
</svg>
