<svg width="48" height="48" viewBox="0 0 48 48" fill="none" xmlns="http://www.w3.org/2000/svg">
<path d="M19.4264 25.9314C19.0454 25.924 17.6946 25.8485 16.8287 25.8609C14.8248 25.8893 12.8209 25.8745 10.8244 25.4156C10.5127 25.3438 9.98075 25.3339 10.0005 23.9337C10.0216 22.4777 10.3815 21.6316 10.9258 21.6898C12.2432 21.8308 13.5668 22.1759 14.8805 21.931C16.8027 21.5735 18.7176 21.785 20.6349 21.7219C22.3568 21.665 24.0787 21.7516 25.8006 21.6823C27.4186 21.6168 29.0366 21.31 30.6533 21.3347C32.0486 21.3558 33.4402 21.7269 34.8356 21.8654C35.1634 21.8976 35.5617 21.6415 35.9216 21.6663C36.2197 21.6873 36.7158 21.7009 37.0102 21.8234C37.1376 21.8765 37.2687 21.9446 37.3936 21.8939C37.9688 21.6601 38.116 22.1672 37.9144 23.7642C37.8699 24.1155 37.9157 24.5757 37.7759 24.8156C37.7697 24.8255 37.7586 24.8453 37.7536 24.8577C37.3268 25.8238 36.8988 25.3723 36.4647 25.3908C34.3321 25.4873 32.2008 25.4861 30.0682 25.5207C28.7595 25.5417 27.4507 25.4725 26.1445 25.6531C25.787 25.7026 25.4283 25.9079 25.0658 25.7842L25.072 25.7854C24.6935 25.8324 24.3137 25.9227 23.9352 25.9178C22.5028 25.8955 21.006 26.0081 19.633 25.8733C19.5798 25.8695 19.5056 25.9339 19.4264 25.9314Z" fill="black"/>
<path d="M19.4264 35.2647C19.0454 35.2573 17.6946 35.1818 16.8287 35.1942C14.8248 35.2227 12.8209 35.2078 10.8244 34.7489C10.5127 34.6772 9.98075 34.6673 10.0005 33.267C10.0216 31.8111 10.3815 30.965 10.9258 31.0231C12.2432 31.1641 13.5668 31.5092 14.8805 31.2643C16.8027 30.9068 18.7176 31.1183 20.6349 31.0553C22.3568 30.9984 24.0787 31.0849 25.8006 31.0157C27.4186 30.9501 29.0366 30.6433 30.6533 30.6681C32.0486 30.6891 33.4402 31.0602 34.8356 31.1987C35.1634 31.2309 35.5617 30.9749 35.9216 30.9996C36.2197 31.0206 36.7158 31.0342 37.0102 31.1567C37.1376 31.2099 37.2687 31.2779 37.3936 31.2272C37.9688 30.9934 38.116 31.5006 37.9144 33.0975C37.8699 33.4488 37.9157 33.909 37.7759 34.149C37.7697 34.1589 37.7586 34.1786 37.7536 34.191C37.3268 35.1571 36.8988 34.7056 36.4647 34.7242C34.3321 34.8207 32.2008 34.8194 30.0682 34.854C28.7595 34.8751 27.4507 34.8058 26.1445 34.9864C25.787 35.0359 25.4283 35.2412 25.0658 35.1175L25.072 35.1188C24.6935 35.1658 24.3137 35.2561 23.9352 35.2511C22.5028 35.2289 21.006 35.3414 19.633 35.2066C19.5798 35.2029 19.5056 35.2672 19.4264 35.2647Z" fill="black"/>
<path d="M19.4264 16.5981C19.0454 16.5906 17.6946 16.5152 16.8287 16.5276C14.8248 16.556 12.8209 16.5412 10.8244 16.0822C10.5127 16.0105 9.98075 16.0006 10.0005 14.6003C10.0216 13.1444 10.3815 12.2983 10.9258 12.3564C12.2432 12.4974 13.5668 12.8426 14.8805 12.5976C16.8027 12.2402 18.7176 12.4517 20.6349 12.3886C22.3568 12.3317 24.0787 12.4183 25.8006 12.349C27.4186 12.2834 29.0366 11.9767 30.6533 12.0014C32.0486 12.0224 33.4402 12.3935 34.8356 12.5321C35.1634 12.5642 35.5617 12.3082 35.9216 12.3329C36.2197 12.354 36.7158 12.3676 37.0102 12.49C37.1376 12.5432 37.2687 12.6113 37.3936 12.5605C37.9688 12.3267 38.116 12.8339 37.9144 14.4309C37.8699 14.7822 37.9157 15.2423 37.7759 15.4823C37.7697 15.4922 37.7586 15.512 37.7536 15.5244C37.3268 16.4904 36.8988 16.0389 36.4647 16.0575C34.3321 16.154 32.2008 16.1527 30.0682 16.1874C28.7595 16.2084 27.4507 16.1391 26.1445 16.3197C25.787 16.3692 25.4283 16.5746 25.0658 16.4509L25.072 16.4521C24.6935 16.4991 24.3137 16.5894 23.9352 16.5845C22.5028 16.5622 21.006 16.6748 19.633 16.5399C19.5798 16.5362 19.5056 16.6005 19.4264 16.5981Z" fill="black"/>
</svg>
