<svg width="48" height="48" viewBox="0 0 48 48" fill="none" xmlns="http://www.w3.org/2000/svg">
<path d="M33.6974 30.8598C32.6879 29.2825 31.4924 27.8324 30.1367 26.5405C29.5706 25.9744 29.0555 25.346 28.5177 24.746C28.4441 24.746 28.3422 24.746 28.2969 24.6724L26.491 22.674C26.9223 21.6699 27.4275 20.6993 28.0025 19.77C28.9479 18.1056 29.9895 16.4979 31.0311 14.8846C31.2463 14.5562 31.8803 14.4996 31.2915 13.6222C31.1896 13.3901 30.8273 13.1693 30.5952 12.9485C29.531 11.9239 29.0781 11.754 28.9309 12.3201C28.897 12.4447 28.7554 12.4957 28.6648 12.5749C27.7647 12.3485 28.3931 13.3278 27.7195 13.2825C27.8061 13.4465 27.8321 13.6359 27.7927 13.8171C27.7534 13.9984 27.6512 14.1599 27.5044 14.2732C26.5901 15.237 25.7428 16.2621 24.9683 17.3414C24.4549 18.2152 24.0102 19.1275 23.638 20.07C22.8398 19.3737 22.1378 18.5812 21.3736 17.8056C19.981 16.3961 18.611 14.9751 17.1788 13.5882C16.8844 13.3051 16.924 12.6542 15.956 13.0731C15.7069 13.1297 15.4295 13.4524 15.1691 13.6392C13.9803 14.511 13.7369 14.9299 14.2634 15.1733C14.3766 15.2242 14.3992 15.3714 14.4615 15.4733C14.0709 16.3168 15.1465 15.8696 14.9653 16.5263C15.141 16.4741 15.3296 16.4858 15.4974 16.5594C15.6653 16.6329 15.8017 16.7636 15.8824 16.9282C16.6863 17.9528 17.3373 19.1246 18.2147 20.0757C19.2394 21.2079 20.4791 22.0797 21.566 23.1269C21.7076 23.2628 21.8434 23.4043 21.9793 23.5459C21.6 24.3157 21.2263 25.0969 20.9037 25.8951C20.2357 27.5934 19.3809 29.1785 19.0809 30.99C18.8884 32.224 18.1921 33.2996 17.7222 34.4658C17.5297 34.947 18.1751 35.4792 19.4545 35.8584C20.7339 36.2377 20.8301 35.7621 20.9716 35.5131C21.8101 33.9241 22.5127 32.2671 23.0719 30.5597C23.3492 29.8408 23.6719 29.1332 24.0059 28.4369C24.0059 28.3633 23.9606 28.2784 24.0059 28.2161C24.2719 27.65 24.572 27.0443 24.8437 26.4669L24.9399 26.5688C26.2137 27.8199 27.3062 29.2464 28.7781 30.3107C29.7801 31.0409 30.4028 32.1505 31.1557 33.1411C31.467 33.5431 32.2879 33.2544 33.2389 32.3486C34.19 31.4428 33.8503 31.1202 33.6974 30.8598Z" fill="black"/>
</svg>
