<svg width="302" height="138" viewBox="0 0 302 138" fill="none" xmlns="http://www.w3.org/2000/svg">
<path d="M10.5764 16.376C14.1763 12.296 17.7764 8.12 21.3284 4.04C21.2323 3.752 21.2324 3.608 21.1364 3.512C19.3604 1.064 18.3523 0.967997 16.2883 2.984C14.3203 4.952 12.4003 6.968 10.3843 8.84C9.08835 10.088 7.60035 11.144 5.82435 12.632C6.54435 8.216 6.25635 4.376 5.68035 0.391998C4.62435 0.391998 3.71235 0.391998 2.80035 0.391998C0.976349 0.439998 0.832349 0.487997 0.784349 2.312C0.688349 5.432 0.736349 8.552 0.688349 11.624C0.640349 15.8 0.544349 19.976 0.496349 24.152C0.448349 26.888 0.256349 29.672 0.304349 32.408C0.304349 34.136 0.640349 34.376 2.27235 34.424C3.32835 34.424 4.33635 34.424 5.44035 34.424C6.30435 29.672 5.58435 25.064 6.20835 20.216C6.92835 20.936 7.36035 21.272 7.74435 21.704C11.0084 25.064 14.2244 28.424 17.4883 31.784C18.6403 33.032 19.2644 33.08 20.5124 31.976C21.2324 31.256 21.9044 30.44 22.7684 29.432C18.6884 25.064 14.7043 20.84 10.5764 16.376Z" fill="black"/>
<path d="M58.213 13.304C58.165 11.048 57.973 8.792 57.973 6.536C58.021 3.608 57.637 3.08 54.709 2.792C54.373 2.744 54.037 2.792 53.653 2.792C51.685 2.792 51.493 2.984 51.493 5C51.541 9.176 51.637 13.352 51.733 17.528C51.733 19.304 51.733 21.08 51.733 23.288C44.581 15.992 37.813 9.08 30.949 2.072C28.357 3.08 26.917 4.616 27.589 7.496C27.637 7.688 27.589 7.928 27.589 8.12C27.589 14.936 27.541 21.752 27.493 28.568C27.493 30.056 27.493 31.544 27.637 33.032C27.685 33.56 28.165 34.472 28.501 34.52C30.133 34.712 31.861 35.192 33.541 34.424C34.453 27.368 33.301 20.408 33.637 13.016C37.189 16.76 40.357 20.36 43.765 23.72C47.221 27.128 50.101 31.16 53.941 34.232C54.517 33.992 54.949 33.752 55.381 33.56C57.109 32.792 57.925 31.64 57.877 29.576C57.781 26.552 58.117 23.528 58.213 20.504C58.261 18.104 58.261 15.704 58.213 13.304Z" fill="black"/>
<path d="M96.3373 14.216C96.2893 13.688 96.0974 13.112 95.9053 12.584C92.9774 5.672 87.5534 2.312 80.2094 1.88C77.3294 1.688 74.6894 2.936 72.0974 3.992C70.7054 4.616 69.2654 5.384 68.1133 6.344C64.2734 9.608 63.0733 14.024 62.9293 18.92C62.9773 19.448 62.9773 20.024 63.1693 20.552C63.9373 22.76 64.6573 24.968 65.5213 27.128C66.2893 29.096 67.6334 30.632 69.3614 31.88C71.8094 33.608 74.5454 34.472 77.5694 34.952C80.2094 35.384 82.7533 35.336 85.2973 34.664C89.0413 33.608 91.9694 31.4 94.0814 28.136C95.4734 26.024 96.9613 23.96 96.9613 21.416C96.9613 19.016 96.5773 16.616 96.3373 14.216ZM90.7693 18.056C90.5773 19.592 90.5774 21.176 90.0974 22.664C89.5214 24.632 88.4174 26.408 86.4014 27.32C83.6654 28.52 80.9774 29.96 77.8574 29.432C74.0654 28.856 71.0893 27.08 69.7934 23.192C69.1693 21.368 68.0173 19.592 68.6413 17.48C70.1293 12.296 72.8173 8.696 78.5294 7.736C80.6893 7.352 82.8974 7.688 84.7214 8.792C88.1774 10.808 91.0093 13.496 90.7693 18.056Z" fill="black"/>
<path d="M147.201 4.52C147.057 4.424 146.913 4.328 146.721 4.232C145.329 3.464 143.889 2.648 142.113 3.032L134.193 22.52L132.225 17.768C130.929 14.552 129.681 11.432 128.433 8.36C128.097 7.64 127.857 6.92 127.569 6.2C127.329 5.576 127.137 5 126.897 4.424C126.465 3.32 125.505 3.272 124.497 3.176C124.305 3.176 124.065 3.176 123.825 3.128C123.249 3.08 122.769 3.512 122.385 4.52C121.569 6.776 120.753 9.032 119.937 11.24C118.977 13.928 117.969 16.616 117.009 19.304C116.817 19.88 116.625 20.504 116.433 21.224C116.337 21.608 116.241 21.992 116.145 22.424L115.905 23.24L115.569 22.424C115.281 21.656 114.993 20.888 114.705 20.168C114.081 18.584 113.457 17.048 112.881 15.512C112.641 14.888 112.449 14.216 112.209 13.544C112.017 12.872 111.777 12.2 111.489 11.528C111.345 11.048 111.153 10.568 110.961 10.136C110.241 8.168 109.521 6.152 108.657 4.232C108.273 3.416 107.841 2.936 107.265 2.744C106.641 2.504 105.921 2.6 105.009 3.032C104.433 3.32 103.857 3.656 103.281 4.04H103.185C101.313 5.24 101.217 5.432 102.129 7.448C102.417 8.072 102.705 8.696 102.993 9.32C103.521 10.472 104.097 11.672 104.577 12.872C106.065 16.856 107.553 20.84 109.041 24.776C109.665 26.504 110.337 28.232 110.961 30.008C111.441 31.304 111.969 32.6 112.449 33.896L113.073 35.48H114.321C114.801 35.48 115.233 35.48 115.665 35.48C116.241 35.48 116.769 35.48 117.345 35.48H117.393C118.449 35.48 119.073 35.048 119.313 34.136C119.697 32.792 120.081 31.448 120.465 30.104C121.281 27.272 122.097 24.392 123.009 21.512C123.345 20.36 123.777 19.208 124.209 18.104C124.401 17.624 124.593 17.096 124.785 16.568L124.833 16.424L125.697 16.376L125.793 16.568C125.889 16.808 126.033 17.096 126.129 17.336C126.417 17.96 126.657 18.536 126.945 19.16C127.089 19.544 127.233 19.976 127.329 20.36C127.569 21.032 127.809 21.704 128.145 22.28C130.017 25.448 131.361 28.952 132.321 33.032C132.513 33.944 132.945 34.28 133.761 34.28C134.625 34.28 135.489 34.28 136.401 34.28H137.361C137.649 33.56 137.889 32.888 138.129 32.216C138.705 30.584 139.281 29.096 139.809 27.512C141.393 22.664 143.025 17.72 144.561 12.92L145.761 9.128C145.953 8.648 146.193 8.072 146.433 7.496C146.721 6.728 147.057 5.96 147.201 5.336C147.297 5.048 147.249 4.616 147.201 4.52Z" fill="black"/>
<path d="M212.545 4.52C212.401 4.424 212.257 4.328 212.065 4.232C210.673 3.464 209.233 2.648 207.457 3.032L199.537 22.52L197.569 17.768C196.273 14.552 195.025 11.432 193.777 8.36C193.441 7.64 193.201 6.92 192.913 6.2C192.673 5.576 192.481 5 192.241 4.424C191.809 3.32 190.849 3.272 189.841 3.176C189.649 3.176 189.409 3.176 189.169 3.128C188.593 3.08 188.113 3.512 187.729 4.52C186.913 6.776 186.097 9.032 185.281 11.24C184.321 13.928 183.313 16.616 182.353 19.304C182.161 19.88 181.969 20.504 181.777 21.224C181.681 21.608 181.585 21.992 181.489 22.424L181.249 23.24L180.913 22.424C180.625 21.656 180.337 20.888 180.049 20.168C179.425 18.584 178.801 17.048 178.225 15.512C177.985 14.888 177.793 14.216 177.553 13.544C177.361 12.872 177.121 12.2 176.833 11.528C176.689 11.048 176.497 10.568 176.305 10.136C175.585 8.168 174.865 6.152 174.001 4.232C173.617 3.416 173.185 2.936 172.609 2.744C171.985 2.504 171.265 2.6 170.353 3.032C169.777 3.32 169.201 3.656 168.625 4.04H168.529C166.657 5.24 166.561 5.432 167.473 7.448C167.761 8.072 168.049 8.696 168.337 9.32C168.865 10.472 169.441 11.672 169.921 12.872C171.409 16.856 172.897 20.84 174.385 24.776C175.009 26.504 175.681 28.232 176.305 30.008C176.785 31.304 177.313 32.6 177.793 33.896L178.417 35.48H179.665C180.145 35.48 180.577 35.48 181.009 35.48C181.585 35.48 182.113 35.48 182.689 35.48H182.737C183.793 35.48 184.417 35.048 184.657 34.136C185.041 32.792 185.425 31.448 185.809 30.104C186.625 27.272 187.441 24.392 188.353 21.512C188.689 20.36 189.121 19.208 189.553 18.104C189.745 17.624 189.937 17.096 190.129 16.568L190.177 16.424L191.041 16.376L191.137 16.568C191.233 16.808 191.377 17.096 191.473 17.336C191.761 17.96 192.001 18.536 192.289 19.16C192.433 19.544 192.577 19.976 192.673 20.36C192.913 21.032 193.153 21.704 193.489 22.28C195.361 25.448 196.705 28.952 197.665 33.032C197.857 33.944 198.289 34.28 199.105 34.28C199.969 34.28 200.833 34.28 201.745 34.28H202.705C202.993 33.56 203.233 32.888 203.473 32.216C204.049 30.584 204.625 29.096 205.153 27.512C206.737 22.664 208.369 17.72 209.905 12.92L211.105 9.128C211.297 8.648 211.537 8.072 211.777 7.496C212.065 6.728 212.401 5.96 212.545 5.336C212.641 5.048 212.593 4.616 212.545 4.52Z" fill="black"/>
<path d="M217.242 5.144C217.242 9.8 217.194 14.504 217.242 19.16C217.29 22.76 217.434 26.408 217.53 30.008C217.53 31.064 217.338 32.12 217.242 33.176C217.194 33.992 217.578 34.568 218.442 34.616C220.266 34.808 222.042 34.712 223.962 34.376C223.962 29.624 223.962 25.016 223.962 20.12C227.658 19.352 231.45 19.448 235.434 20.264C235.434 22.28 235.386 24.296 235.434 26.264C235.53 28.28 235.77 30.344 235.962 32.408C236.154 33.752 236.97 34.472 238.314 34.616C238.794 34.664 239.322 34.664 239.802 34.616C241.482 34.568 241.962 34.04 241.866 32.456C241.386 24.872 241.146 17.336 241.626 9.752C241.77 7.304 241.626 4.808 241.626 2.216C240.282 1.928 239.082 1.592 237.93 1.496C235.962 1.352 235.242 2.072 235.194 4.088C235.098 6.776 235.05 9.464 235.002 12.2C235.002 12.824 234.906 13.4 234.858 14.216C231.066 13.928 227.562 15.56 223.674 14.84C223.53 13.208 223.29 11.576 223.194 9.992C223.05 7.832 222.954 5.72 222.906 3.608C222.858 2.552 222.426 1.736 221.418 1.64C220.074 1.448 218.73 1.592 217.242 1.592C217.242 3.032 217.242 4.088 217.242 5.144Z" fill="black"/>
<path d="M274.715 31.784C273.419 28.232 272.075 24.632 270.779 21.032C268.811 15.56 266.795 10.136 264.827 4.664C264.443 3.608 263.915 2.984 262.715 2.984C261.563 2.984 260.651 3.176 260.171 4.424C259.883 5.192 259.403 5.912 259.019 6.68C255.371 13.784 251.723 20.936 248.123 28.088C247.547 29.192 246.971 30.344 246.587 31.544C246.443 32.072 246.539 32.984 246.875 33.272C248.027 34.232 249.083 35.48 250.859 35.528C252.587 32.504 254.315 29.528 256.187 26.264C259.163 26.024 262.283 25.784 265.451 25.544C265.835 26.408 266.123 27.128 266.411 27.8C267.371 29.96 268.283 32.072 269.339 34.184C269.963 35.528 270.683 35.816 272.027 35.336C273.179 34.904 274.235 34.376 275.435 33.848C275.195 33.128 274.955 32.456 274.715 31.784ZM257.867 21.272C259.019 18.824 260.075 16.568 261.179 14.36C261.323 14.36 261.419 14.36 261.563 14.36C261.947 15.512 262.331 16.712 262.715 17.864C263.099 18.968 263.531 20.072 264.011 21.272C261.899 21.272 259.979 21.272 257.867 21.272Z" fill="black"/>
<path d="M294.597 34.04C294.549 32.072 294.405 30.104 294.357 28.136C294.309 24.584 294.741 21.032 294.213 17.576C293.781 14.312 294.165 11.144 294.021 7.688C295.317 7.688 296.565 7.736 297.813 7.64C299.157 7.592 300.453 7.352 301.749 7.208C301.845 6.2 301.941 5.528 301.941 4.808C301.941 2.408 301.269 1.784 298.917 1.784C293.301 1.832 287.685 1.88 282.069 1.928C281.445 1.928 280.773 2.168 280.101 2.264C280.293 3.992 280.485 5.432 280.725 7.112C283.077 7.112 285.429 7.112 287.877 7.112C287.925 7.736 288.069 8.216 287.973 8.648C286.773 12.728 287.925 16.856 287.493 20.936C287.253 23.144 287.589 25.448 287.733 27.704C287.829 29.576 288.069 31.496 288.165 33.416C288.261 34.52 288.741 35.048 289.893 35.096C291.285 35.144 292.677 35.24 294.213 35.336C294.405 34.712 294.597 34.376 294.597 34.04Z" fill="black"/>
<path d="M14.8004 85.04C14.7523 83.072 14.6083 81.104 14.5604 79.136C14.5123 75.584 14.9443 72.032 14.4163 68.576C13.9843 65.312 14.3684 62.144 14.2244 58.688C15.5203 58.688 16.7684 58.736 18.0163 58.64C19.3603 58.592 20.6564 58.352 21.9524 58.208C22.0484 57.2 22.1444 56.528 22.1444 55.808C22.1444 53.408 21.4723 52.784 19.1203 52.784C13.5043 52.832 7.88835 52.88 2.27235 52.928C1.64835 52.928 0.976349 53.168 0.304349 53.264C0.496349 54.992 0.688349 56.432 0.928349 58.112C3.28035 58.112 5.63235 58.112 8.08035 58.112C8.12835 58.736 8.27235 59.216 8.17635 59.648C6.97635 63.728 8.12835 67.856 7.69635 71.936C7.45635 74.144 7.79235 76.448 7.93635 78.704C8.03235 80.576 8.27235 82.496 8.36835 84.416C8.46435 85.52 8.94435 86.048 10.0963 86.096C11.4884 86.144 12.8803 86.24 14.4163 86.336C14.6083 85.712 14.8004 85.376 14.8004 85.04Z" fill="black"/>
<path d="M26.7887 56.144C26.7887 60.8 26.7407 65.504 26.7887 70.16C26.8367 73.76 26.9807 77.408 27.0767 81.008C27.0767 82.064 26.8847 83.12 26.7887 84.176C26.7407 84.992 27.1247 85.568 27.9887 85.616C29.8127 85.808 31.5887 85.712 33.5087 85.376C33.5087 80.624 33.5087 76.016 33.5087 71.12C37.2047 70.352 40.9967 70.448 44.9807 71.264C44.9807 73.28 44.9327 75.296 44.9807 77.264C45.0767 79.28 45.3167 81.344 45.5087 83.408C45.7007 84.752 46.5167 85.472 47.8607 85.616C48.3407 85.664 48.8687 85.664 49.3487 85.616C51.0287 85.568 51.5087 85.04 51.4127 83.456C50.9327 75.872 50.6927 68.336 51.1727 60.752C51.3167 58.304 51.1727 55.808 51.1727 53.216C49.8287 52.928 48.6287 52.592 47.4767 52.496C45.5087 52.352 44.7887 53.072 44.7407 55.088C44.6447 57.776 44.5967 60.464 44.5487 63.2C44.5487 63.824 44.4527 64.4 44.4047 65.216C40.6127 64.928 37.1087 66.56 33.2207 65.84C33.0767 64.208 32.8367 62.576 32.7407 60.992C32.5967 58.832 32.5007 56.72 32.4527 54.608C32.4047 53.552 31.9727 52.736 30.9647 52.64C29.6207 52.448 28.2767 52.592 26.7887 52.592C26.7887 54.032 26.7887 55.088 26.7887 56.144Z" fill="black"/>
<path d="M67.6536 56.048C67.7016 54.272 67.5096 54.032 65.7336 54.032C63.1416 54.08 60.5016 54.224 57.9096 54.32C56.3256 54.416 56.1336 54.608 56.0856 56.24C56.0376 57.584 56.0856 58.976 56.0856 60.32C56.0856 67.568 56.0856 74.768 56.1336 82.016C56.1336 83.408 56.3736 84.8 56.4696 86.096C60.0696 86.624 65.7336 86.288 67.1736 85.472C67.2216 83.984 67.5096 82.448 66.8376 80.72C65.1576 80.72 63.5256 80.72 61.8936 80.72C61.4616 77.024 61.6056 73.616 62.2296 71.84C62.8536 71.696 63.4296 71.504 64.1016 71.408C66.9336 71.024 66.9336 71.024 66.8376 68.288C66.7896 67.808 66.6456 67.328 66.5016 66.656C64.9176 66.656 63.3816 66.656 61.7976 66.656C61.6536 64.256 61.1736 62.144 61.4136 59.888C63.4776 59.888 65.3016 59.888 67.4616 59.888C67.5096 58.4 67.6536 57.248 67.6536 56.048Z" fill="black"/>
<path d="M93.9523 54.272C93.8563 54.272 93.7123 54.32 93.5203 54.368C90.5443 58.352 88.3363 62.912 84.8803 66.752C83.3443 64.448 81.8564 62.288 80.4164 60.08C79.1684 58.208 78.0163 56.24 76.7683 54.368C76.3843 53.744 75.9043 53.072 75.0883 53.648C74.1283 54.368 73.2164 55.136 72.3044 55.856C72.4484 56.384 72.4963 56.72 72.6883 57.008C73.8883 58.976 75.0884 60.896 76.2884 62.816C78.0644 65.744 79.7924 68.768 81.7604 71.648C82.5284 72.8 82.8644 73.856 82.8164 75.2C82.7204 77.936 82.5764 80.72 82.5284 83.456C82.4804 86.72 82.9603 87.104 86.2723 86.624C86.4163 86.624 86.5124 86.48 86.7044 86.384C86.7524 86.192 86.8483 85.904 86.8963 85.616C87.1843 82.208 87.3763 78.704 87.8083 75.296C87.9523 73.712 87.8083 72.08 88.7683 70.592C91.1683 66.752 93.4723 62.816 95.8243 58.976C97.7923 55.76 97.6483 55.376 93.9523 54.272Z" fill="black"/>
<path d="M134.357 77.12C132.533 75.584 130.805 74 128.789 72.224C129.749 71.888 130.325 71.648 130.901 71.456C132.965 70.88 134.453 69.44 135.317 67.664C137.813 62.432 135.317 56.432 130.709 54.224C128.453 53.168 125.861 52.64 123.269 52.832C121.733 52.928 120.197 53.072 118.613 53.264C118.229 53.312 117.845 53.504 117.461 53.6C117.221 64.4 116.981 75.104 116.789 85.664C119.189 86.624 120.629 86.576 122.693 85.424C122.693 81.92 122.693 78.272 122.693 74.288C127.445 78.272 131.909 82.016 136.469 85.856C137.525 84.608 138.485 83.456 139.493 82.208C138.101 80.144 136.229 78.656 134.357 77.12ZM122.981 68.72C122.981 64.688 122.981 61.184 122.981 57.536C124.709 56.384 126.485 57.296 128.069 57.968C129.797 58.64 130.949 60.128 131.429 62.048C132.101 65.024 130.997 67.04 128.021 67.808C126.485 68.24 124.901 68.384 122.981 68.72Z" fill="black"/>
<path d="M155.732 56.048C155.78 54.272 155.588 54.032 153.812 54.032C151.22 54.08 148.58 54.224 145.988 54.32C144.404 54.416 144.212 54.608 144.164 56.24C144.116 57.584 144.164 58.976 144.164 60.32C144.164 67.568 144.164 74.768 144.212 82.016C144.212 83.408 144.452 84.8 144.548 86.096C148.148 86.624 153.812 86.288 155.252 85.472C155.3 83.984 155.588 82.448 154.916 80.72C153.236 80.72 151.604 80.72 149.972 80.72C149.54 77.024 149.684 73.616 150.308 71.84C150.932 71.696 151.508 71.504 152.18 71.408C155.012 71.024 155.012 71.024 154.916 68.288C154.868 67.808 154.724 67.328 154.58 66.656C152.996 66.656 151.46 66.656 149.876 66.656C149.732 64.256 149.252 62.144 149.492 59.888C151.556 59.888 153.38 59.888 155.54 59.888C155.588 58.4 155.732 57.248 155.732 56.048Z" fill="black"/>
<path d="M188.558 82.784C187.262 79.232 185.918 75.632 184.622 72.032C182.654 66.56 180.638 61.136 178.67 55.664C178.286 54.608 177.758 53.984 176.558 53.984C175.406 53.984 174.494 54.176 174.014 55.424C173.726 56.192 173.246 56.912 172.862 57.68C169.214 64.784 165.566 71.936 161.966 79.088C161.39 80.192 160.814 81.344 160.43 82.544C160.286 83.072 160.382 83.984 160.718 84.272C161.87 85.232 162.926 86.48 164.702 86.528C166.43 83.504 168.158 80.528 170.03 77.264C173.006 77.024 176.126 76.784 179.294 76.544C179.678 77.408 179.966 78.128 180.254 78.8C181.214 80.96 182.126 83.072 183.182 85.184C183.806 86.528 184.526 86.816 185.87 86.336C187.022 85.904 188.078 85.376 189.278 84.848C189.038 84.128 188.798 83.456 188.558 82.784ZM171.71 72.272C172.862 69.824 173.918 67.568 175.022 65.36C175.166 65.36 175.262 65.36 175.406 65.36C175.79 66.512 176.174 67.712 176.558 68.864C176.942 69.968 177.374 71.072 177.854 72.272C175.742 72.272 173.822 72.272 171.71 72.272Z" fill="black"/>
<path d="M204.265 81.344C202.921 81.248 201.625 81.2 200.089 81.104C200.089 80.24 200.089 79.472 200.089 78.704C200.089 71.216 200.089 63.776 200.089 56.336C200.089 52.592 199.657 52.592 195.865 52.736C194.809 52.784 194.185 53.36 194.185 54.512C194.137 56 193.993 57.488 193.945 58.976C193.897 60.944 193.897 62.912 193.945 64.88C194.089 68.24 194.329 71.552 194.425 74.864C194.473 78.608 194.425 82.4 194.473 86.144C194.473 86.432 194.665 86.768 194.809 87.248C196.489 87.248 198.121 87.344 199.753 87.2C201.289 87.056 202.921 88.304 204.457 86.816C204.457 85.04 204.745 83.216 204.265 81.344Z" fill="black"/>
<path d="M219.499 81.344C218.155 81.248 216.859 81.2 215.323 81.104C215.323 80.24 215.323 79.472 215.323 78.704C215.323 71.216 215.323 63.776 215.323 56.336C215.323 52.592 214.891 52.592 211.099 52.736C210.043 52.784 209.419 53.36 209.419 54.512C209.371 56 209.227 57.488 209.179 58.976C209.131 60.944 209.131 62.912 209.179 64.88C209.323 68.24 209.563 71.552 209.659 74.864C209.707 78.608 209.659 82.4 209.707 86.144C209.707 86.432 209.899 86.768 210.043 87.248C211.723 87.248 213.355 87.344 214.987 87.2C216.523 87.056 218.155 88.304 219.691 86.816C219.691 85.04 219.979 83.216 219.499 81.344Z" fill="black"/>
<path d="M246.062 54.272C245.966 54.272 245.822 54.32 245.63 54.368C242.654 58.352 240.446 62.912 236.99 66.752C235.454 64.448 233.966 62.288 232.526 60.08C231.278 58.208 230.126 56.24 228.878 54.368C228.494 53.744 228.014 53.072 227.198 53.648C226.238 54.368 225.326 55.136 224.414 55.856C224.558 56.384 224.606 56.72 224.798 57.008C225.998 58.976 227.198 60.896 228.398 62.816C230.174 65.744 231.902 68.768 233.87 71.648C234.638 72.8 234.974 73.856 234.926 75.2C234.83 77.936 234.686 80.72 234.638 83.456C234.59 86.72 235.07 87.104 238.382 86.624C238.526 86.624 238.622 86.48 238.814 86.384C238.862 86.192 238.958 85.904 239.006 85.616C239.294 82.208 239.486 78.704 239.918 75.296C240.062 73.712 239.918 72.08 240.878 70.592C243.278 66.752 245.582 62.816 247.934 58.976C249.902 55.76 249.758 55.376 246.062 54.272Z" fill="black"/>
<path d="M37.3124 133.304C37.2163 132.632 37.0724 131.912 36.9764 131.24C36.7364 129.848 36.4484 128.456 36.2564 127.016C36.1124 126.2 36.0644 125.336 35.9683 124.52C35.8724 123.464 35.7284 122.408 35.5364 121.352C35.2964 119.96 34.9604 118.568 34.6724 117.176C34.4804 116.504 34.3363 115.832 34.1923 115.16C34.0004 114.296 33.7604 113.384 33.5684 112.52C33.0403 110.312 32.5124 108.056 32.1284 105.8C31.8884 104.264 30.9284 104.168 29.6804 104.024C29.5364 104.024 29.3924 103.976 29.2004 103.976C27.7604 103.784 27.7603 103.784 27.0403 105.368C26.1284 107.336 25.2644 109.4 24.4004 111.368C24.1604 112.04 23.8724 112.712 23.5844 113.336C22.4804 115.832 21.5203 118.088 20.6564 120.2C20.3684 120.92 20.0804 121.64 19.7444 122.456C19.5524 122.84 19.4083 123.272 19.2164 123.752L18.9284 124.424L18.6404 123.752C18.4964 123.368 18.3524 123.032 18.2084 122.696C17.9204 122.072 17.6804 121.544 17.4883 121.016C16.8643 119.432 16.2883 117.848 15.7123 116.264C14.5123 112.856 13.2644 109.352 11.5844 106.04C11.1043 105.128 10.6244 104.744 9.61635 104.552C8.89635 104.408 8.32035 104.312 7.88835 104.312C7.55235 104.312 7.31235 104.36 7.12035 104.456C6.68835 104.744 6.44835 105.512 6.20835 106.76C5.87235 108.344 5.58435 109.928 5.29635 111.512C4.81635 113.768 4.38435 116.12 3.90435 118.424C3.32835 121.112 2.75235 123.704 2.17635 126.152C1.55235 128.888 0.928349 131.72 0.304349 134.696C0.208349 135.128 0.496349 135.896 0.640349 135.992C0.880349 136.088 1.07235 136.184 1.26435 136.28C2.56035 136.856 3.76035 137.432 5.20035 137C5.53635 135.704 5.87235 134.504 6.20835 133.256C7.36035 129.128 8.41635 125.192 10.0003 120.776L10.2404 120.056L10.5283 120.728C11.3444 122.552 12.1604 124.232 12.9284 125.912C14.2724 128.744 15.5683 131.384 16.6723 134.312C17.6323 136.856 18.9284 137.24 21.1364 137.096C21.7604 137.048 22.0484 136.808 22.1924 136.184C22.9604 133.64 23.8244 131 24.6404 128.408C25.4084 126.2 26.1284 123.896 26.8004 121.736C26.8964 121.352 27.0404 120.968 27.2324 120.488C27.3284 120.2 27.4724 119.912 27.5684 119.576L27.9524 118.568L28.1444 119.624C29.1524 124.664 30.8804 130.28 33.2803 136.28C33.5684 136.184 33.8084 136.184 34.0484 136.136C34.7204 135.992 35.3924 135.896 36.0164 135.704C37.4084 135.272 37.6004 134.888 37.3124 133.304Z" fill="black"/>
<path d="M53.6848 107.048C53.7328 105.272 53.5409 105.032 51.7649 105.032C49.1729 105.08 46.5328 105.224 43.9408 105.32C42.3568 105.416 42.1648 105.608 42.1168 107.24C42.0688 108.584 42.1168 109.976 42.1168 111.32C42.1168 118.568 42.1168 125.768 42.1648 133.016C42.1648 134.408 42.4049 135.8 42.5009 137.096C46.1009 137.624 51.7648 137.288 53.2048 136.472C53.2528 134.984 53.5409 133.448 52.8689 131.72C51.1889 131.72 49.5569 131.72 47.9249 131.72C47.4929 128.024 47.6368 124.616 48.2608 122.84C48.8848 122.696 49.4609 122.504 50.1329 122.408C52.9649 122.024 52.9649 122.024 52.8689 119.288C52.8209 118.808 52.6768 118.328 52.5328 117.656C50.9488 117.656 49.4128 117.656 47.8288 117.656C47.6848 115.256 47.2049 113.144 47.4449 110.888C49.5089 110.888 51.3329 110.888 53.4929 110.888C53.5409 109.4 53.6848 108.248 53.6848 107.048Z" fill="black"/>
<path d="M86.5116 133.784C85.2156 130.232 83.8716 126.632 82.5756 123.032C80.6076 117.56 78.5916 112.136 76.6236 106.664C76.2396 105.608 75.7116 104.984 74.5116 104.984C73.3596 104.984 72.4476 105.176 71.9676 106.424C71.6796 107.192 71.1996 107.912 70.8156 108.68C67.1676 115.784 63.5196 122.936 59.9196 130.088C59.3436 131.192 58.7676 132.344 58.3836 133.544C58.2396 134.072 58.3356 134.984 58.6716 135.272C59.8236 136.232 60.8796 137.48 62.6556 137.528C64.3836 134.504 66.1116 131.528 67.9836 128.264C70.9596 128.024 74.0796 127.784 77.2476 127.544C77.6316 128.408 77.9196 129.128 78.2076 129.8C79.1676 131.96 80.0796 134.072 81.1356 136.184C81.7596 137.528 82.4796 137.816 83.8236 137.336C84.9756 136.904 86.0316 136.376 87.2316 135.848C86.9916 135.128 86.7516 134.456 86.5116 133.784ZM69.6636 123.272C70.8156 120.824 71.8716 118.568 72.9756 116.36C73.1196 116.36 73.2156 116.36 73.3596 116.36C73.7436 117.512 74.1276 118.712 74.5116 119.864C74.8956 120.968 75.3276 122.072 75.8076 123.272C73.6956 123.272 71.7756 123.272 69.6636 123.272Z" fill="black"/>
<path d="M122.666 115.304C122.618 113.048 122.426 110.792 122.426 108.536C122.474 105.608 122.09 105.08 119.162 104.792C118.826 104.744 118.49 104.792 118.106 104.792C116.138 104.792 115.946 104.984 115.946 107C115.994 111.176 116.09 115.352 116.186 119.528C116.186 121.304 116.186 123.08 116.186 125.288C109.034 117.992 102.266 111.08 95.4021 104.072C92.8101 105.08 91.3701 106.616 92.0421 109.496C92.0901 109.688 92.0421 109.928 92.0421 110.12C92.0421 116.936 91.9941 123.752 91.9461 130.568C91.9461 132.056 91.9461 133.544 92.0901 135.032C92.1381 135.56 92.6181 136.472 92.9541 136.52C94.5861 136.712 96.3141 137.192 97.9941 136.424C98.9061 129.368 97.7541 122.408 98.0901 115.016C101.642 118.76 104.81 122.36 108.218 125.72C111.674 129.128 114.554 133.16 118.394 136.232C118.97 135.992 119.402 135.752 119.834 135.56C121.562 134.792 122.378 133.64 122.33 131.576C122.234 128.552 122.57 125.528 122.666 122.504C122.714 120.104 122.714 117.704 122.666 115.304Z" fill="black"/>
<path d="M184.654 96.8419C190.173 96.4022 195.668 95.8042 201.115 95.0421C206.261 94.3152 211.399 93.5003 216.442 92.4391L218.34 92.0581L220.222 91.636C221.476 91.3487 222.731 91.079 223.978 90.7801C226.455 90.1528 228.965 89.5607 231.395 88.8689C236.262 87.5146 240.94 85.9259 245.117 83.8682C247.205 82.8422 249.127 81.6815 250.866 80.3976C252.589 79.1254 254.09 77.7184 255.305 76.1648C255.543 75.8483 255.766 75.52 255.964 75.1917L256.512 74.1833L256.464 74.2361C258.863 70.3492 259.426 65.8937 257.203 62.1535C255.035 58.3721 250.334 55.4878 244.974 53.477C241.845 52.322 238.51 51.384 235.063 50.6336C231.601 49.9126 228.02 49.2501 224.454 48.7107C217.299 47.6203 210.033 46.9285 202.743 46.6295C188.148 46.0316 173.441 47.0047 159.203 49.4905C158.083 49.6605 156.788 49.936 155.462 50.1822C154.136 50.4402 152.762 50.6512 151.547 50.874C149.102 51.2844 147.132 51.4134 146.91 50.7685C146.433 49.4729 151.134 47.292 159.171 45.8616C164.015 44.9705 168.946 44.3608 173.878 43.8449C176.355 43.6397 178.825 43.3817 181.318 43.2703C182.565 43.2058 183.804 43.112 185.051 43.0651L188.783 42.942C190.03 42.8893 191.268 42.8893 192.515 42.8834C193.762 42.8834 195.001 42.8541 196.247 42.8658C198.733 42.9303 201.219 42.9244 203.704 43.0593C208.667 43.2234 213.599 43.6514 218.514 44.1087L223.882 44.7418L229.211 45.5333L234.5 46.483C236.263 46.823 238.033 47.2099 239.78 47.6496C243.266 48.5349 246.721 49.5901 249.969 51.0264C250.779 51.3899 251.589 51.7475 252.367 52.1638C253.161 52.5507 253.915 52.9904 254.662 53.4418C255.424 53.8756 256.099 54.3974 256.822 54.8722L257.814 55.6637C258.156 55.9216 258.473 56.1972 258.767 56.4903C261.229 58.7532 263.032 61.4851 263.667 64.4047C264.35 67.3125 263.937 70.273 262.841 73.0167C262.269 74.3826 261.547 75.7076 260.673 76.9797C259.776 78.2402 258.751 79.442 257.608 80.5793C255.265 82.8481 252.454 84.7651 249.413 86.4008C243.942 89.3496 237.803 91.3253 231.704 92.9902C225.59 94.62 219.38 96.0329 213.075 97.1936C200.472 99.5269 187.528 100.805 174.553 101.192C162.347 101.491 150.142 101.034 138.008 99.5797C134.959 99.181 131.925 98.7003 128.915 98.0789C125.914 97.4399 122.936 96.6836 120.029 95.7456C117.139 94.7783 114.32 93.641 111.667 92.2691C109.023 90.8797 106.601 89.2089 104.512 87.3036L103.218 86.0373C102.813 85.6035 102.456 85.1345 102.083 84.6831L101.527 84.003C101.352 83.7744 101.209 83.5281 101.05 83.2878L100.137 81.8456C99.0333 79.8699 98.3742 77.7653 98.1121 75.6489C97.858 73.5326 98.0484 71.4103 98.5567 69.3585C99.0808 67.3066 99.9464 65.3251 101.05 63.4373C103.29 59.6736 106.506 56.291 110.381 53.4242C112.319 51.9879 114.423 50.6747 116.686 49.5198C117.814 48.9394 118.981 48.4 120.188 47.9017C121.395 47.421 122.594 46.9754 123.817 46.5357C128.455 44.9411 133.616 43.8214 138.135 42.5786H138.048C140.986 42.4203 144.043 41.8926 147.132 41.535C150.213 41.154 153.294 40.9195 156.098 41.2478C158.035 41.1891 160.013 41.2185 161.879 41.1247C170.463 40.7377 172.71 41.2419 169.883 42.772C169.264 43.112 170.002 43.54 167.938 43.7921C167.93 43.7921 167.779 43.7686 167.779 43.7686L167.842 43.7921C164.968 44.3432 161.776 44.5308 158.496 44.648C155.224 44.7711 151.873 44.8356 148.72 45.0994C140.994 45.756 133.386 47.0165 126.47 49.3849C125.588 49.6605 124.762 49.9946 123.913 50.3229C123.055 50.6395 122.245 50.9854 121.451 51.343C119.863 52.0641 118.346 52.8907 116.908 53.7818C114.034 55.5699 111.485 57.6452 109.365 59.9316C105.148 64.4867 102.622 69.9975 103.353 75.35C103.536 76.6807 103.909 77.9881 104.489 79.2485L104.965 80.1807C105.14 80.4855 105.354 80.7845 105.545 81.0893L106.124 81.998C106.347 82.2912 106.593 82.5726 106.831 82.854C108.713 85.1403 111.286 87.1219 114.264 88.7516C117.901 90.7859 122.165 92.2574 126.565 93.4299C130.98 94.6024 135.618 95.3938 140.303 95.9684C149.761 97.0998 159.393 97.5747 168.962 97.5044C174.211 97.4106 179.436 97.0764 184.741 96.8243L184.654 96.8419Z" fill="#F5CC6E"/>
</svg>
