<svg width="183" height="60" viewBox="0 0 183 60" fill="none" xmlns="http://www.w3.org/2000/svg">
<path d="M95.5278 55.5837C101.612 55.146 107.67 54.5508 113.675 53.7922C119.348 53.0686 125.012 52.2575 130.571 51.2013L132.663 50.822L134.738 50.4018C136.121 50.1159 137.505 49.8475 138.879 49.5499C141.61 48.9255 144.377 48.3361 147.055 47.6475C152.422 46.2996 157.578 44.7182 162.183 42.6699C164.485 41.6487 166.604 40.4933 168.521 39.2154C170.421 37.9491 172.075 36.5486 173.415 35.0022C173.677 34.6871 173.923 34.3603 174.141 34.0336L174.745 33.0299L174.693 33.0824C177.337 29.2135 177.958 24.7786 175.507 21.0556C173.117 17.2918 167.934 14.4208 162.025 12.4193C158.576 11.2697 154.899 10.336 151.1 9.58909C147.283 8.87134 143.335 8.21194 139.404 7.67508C131.517 6.5897 123.507 5.90112 115.47 5.60352C99.3797 5.00831 83.1667 5.97698 67.4703 8.45119C66.2359 8.62041 64.809 8.89468 63.347 9.13977C61.8851 9.39652 60.3706 9.6066 59.0312 9.82834C56.3349 10.2368 54.1638 10.3652 53.9186 9.7233C53.3934 8.43368 58.5759 6.26292 67.4352 4.83908C72.7753 3.9521 78.2118 3.34522 83.6482 2.8317C86.3795 2.62747 89.1022 2.37071 91.851 2.25984C93.2255 2.19565 94.5911 2.10228 95.9655 2.0556L100.08 1.93305C101.454 1.88054 102.82 1.88054 104.194 1.8747C105.569 1.8747 106.935 1.84552 108.309 1.85719C111.049 1.92138 113.789 1.91555 116.529 2.04976C122.001 2.21315 127.437 2.63914 132.856 3.0943L138.774 3.72452L144.648 4.5123L150.478 5.45763C152.422 5.79608 154.374 6.18122 156.3 6.61887C160.143 7.50002 163.951 8.55039 167.532 9.98006C168.425 10.3419 169.318 10.6978 170.176 11.1121C171.051 11.4973 171.883 11.9349 172.706 12.3842C173.546 12.8161 174.29 13.3354 175.087 13.8081L176.181 14.5959C176.557 14.8526 176.908 15.1269 177.231 15.4186C179.945 17.6711 181.933 20.3904 182.633 23.2964C183.386 26.1908 182.931 29.1377 181.722 31.8686C181.092 33.2283 180.296 34.5471 179.333 35.8133C178.343 37.068 177.214 38.2642 175.953 39.3963C173.371 41.6546 170.272 43.5628 166.919 45.1908C160.887 48.126 154.12 50.0926 147.397 51.7498C140.656 53.3721 133.81 54.7784 126.859 55.9338C112.966 58.2563 98.6969 59.5284 84.3924 59.9135C70.937 60.2111 57.4817 59.756 44.1051 58.3088C40.7435 57.912 37.3994 57.4335 34.0815 56.8149C30.7724 56.1789 27.4894 55.4261 24.2853 54.4924C21.0987 53.5296 17.9909 52.3975 15.067 51.0321C12.1518 49.6491 9.48175 47.986 7.17937 46.0895L5.75253 44.829C5.30606 44.3972 4.91217 43.9304 4.50072 43.4811L3.88797 42.8042C3.69537 42.5766 3.53771 42.3315 3.36262 42.0922L2.35596 40.6567C1.13912 38.6902 0.41247 36.5953 0.123579 34.4887C-0.156559 32.3821 0.0533818 30.2697 0.613656 28.2273C1.19144 26.1849 2.14578 24.2126 3.36262 22.3336C5.83133 18.5873 9.37682 15.2202 13.6489 12.3667C15.785 10.9371 18.1048 9.62994 20.5998 8.48037C21.8429 7.90266 23.1299 7.36581 24.4605 6.8698C25.7912 6.39129 27.1129 5.9478 28.4611 5.51015C33.5736 3.92292 39.2639 2.80836 44.2451 1.57126H44.1489C47.388 1.4137 50.7584 0.888518 54.1638 0.532559C57.5605 0.153259 60.9572 -0.0801569 64.0474 0.246625C66.1835 0.188271 68.3633 0.217448 70.4206 0.124082C79.884 -0.261054 82.3613 0.24079 79.2447 1.76383C78.5619 2.10228 79.3761 2.52826 77.1 2.77919C77.0912 2.77919 76.9249 2.75584 76.9249 2.75584L76.9948 2.77919C73.8258 3.32771 70.3068 3.51445 66.6912 3.63115C63.0845 3.7537 59.3901 3.81789 55.9146 4.08048C47.3967 4.73404 39.0101 5.98865 31.3851 8.34615C30.4134 8.62041 29.503 8.95303 28.5663 9.27981C27.6208 9.59493 26.7278 9.93921 25.8523 10.2952C24.1015 11.0129 22.4294 11.8357 20.8449 12.7227C17.6759 14.5025 14.8657 16.5682 12.5283 18.844C7.87981 23.3781 5.09589 28.8634 5.90128 34.1911C6.10263 35.5157 6.51424 36.817 7.1533 38.0716L7.67843 38.9995C7.87102 39.3029 8.10737 39.6005 8.31747 39.904L8.95652 40.8084C9.20164 41.1002 9.47314 41.3803 9.73577 41.6604C11.8105 43.9362 14.6468 45.9086 17.9297 47.5308C21.9391 49.5557 26.6402 51.0204 31.4901 52.1875C36.3574 53.3545 41.47 54.1423 46.635 54.7142C57.0614 55.8404 67.6804 56.3131 78.2293 56.2431C84.0159 56.1497 89.7761 55.8171 95.624 55.5662L95.5278 55.5837Z" fill="#F5CC6E"/>
</svg>
